# ProBuilder 4.0.5
# https://unity3d.com/unity/features/worldbuilding/probuilder
# 7/26/2021 3:52:11 PM

mtllib ./ProbuilderFactory1Map.mtl
o ProbuilderFactory1Map

g ProbuilderFactory1Map
v 12.13232 18.47556 24.19802
v -49.05098 18.47556 24.19802
v 12.13232 19.47566 24.19802
v -49.05098 19.47566 24.19802
v -59.0396 -3.01 16.65319
v -59.0396 -3.01 -18.98429
v -59.0396 -2.01 16.65319
v -59.0396 -2.01 -18.98429
v -49.05098 -3.01 -140.1687
v 12.13232 -3.01 -140.1687
v -49.05098 -2.01 -140.1687
v 12.13232 -2.01 -140.1687
v 21.78085 -3.01 -18.98429
v 21.78085 -3.01 16.65319
v 21.78085 -2.01 -18.98429
v 21.78085 -2.01 16.65319
v 12.13232 -2.01 16.65319
v -49.05098 -2.01 16.65319
v 12.13232 -2.01 -18.98429
v -49.05098 -2.01 -18.98429
v 12.13232 -3.01 -18.98429
v -49.05098 -3.01 -18.98429
v 12.13232 -3.01 16.65319
v -49.05098 -3.01 16.65319
v 16.45503 -3.01 -18.98429
v 16.45503 -3.01 16.65319
v 16.45503 -2.01 -140.1687
v 16.45503 -3.01 -140.1687
v 16.45503 18.47556 24.19802
v 16.45503 19.47566 24.19802
v 16.45503 -2.01 16.65319
v 16.45503 -2.01 -18.98429
v 21.78085 -2.01 -140.1687
v 21.78085 -3.01 -140.1687
v 21.78085 18.47556 24.19802
v 21.78085 19.47566 24.19802
v 16.45503 19.47566 16.65319
v 16.45503 19.47566 -18.98429
v 21.78085 19.47566 16.65319
v 21.78085 19.47566 -18.98429
v -54.15434 -3.01 16.65319
v -54.15434 -3.01 -18.98429
v -54.15434 19.47566 24.19802
v -54.15434 18.47556 24.19802
v -54.15434 -3.01 -140.1687
v -54.15434 -2.01 -140.1687
v -49.05098 12.77042 -18.98429
v -49.05098 12.77042 16.65319
v -54.15434 12.77042 -18.98429
v -54.15434 12.77042 16.65319
v -59.0396 19.47566 24.19802
v -59.0396 18.47556 24.19802
v -59.0396 -3.01 -140.1687
v -59.0396 -2.01 -140.1687
v -54.15434 19.47566 -18.98429
v -54.15434 19.47566 16.65319
v -59.0396 19.47566 -18.98429
v -59.0396 19.47566 16.65319
v -49.05098 -3.01 -29.65196
v 12.13232 -3.01 -29.65196
v -59.0396 -3.01 -29.65196
v -54.15434 -3.01 -29.65196
v -54.15434 19.47566 -29.65196
v -59.0396 19.47566 -29.65196
v -59.0396 -2.01 -29.65196
v 16.45503 20.93396 -18.98429
v 12.13232 20.93396 -18.98429
v 16.45503 20.93396 -29.65196
v 12.13232 20.93396 -29.65196
v -49.05098 14.6269 -29.65196
v -54.15434 14.6269 -29.65196
v 12.13232 24.22486 -18.98429
v -49.05098 24.22486 -18.98429
v 12.13232 24.22486 -29.65196
v -49.05098 24.22486 -29.65196
v 16.45503 -3.01 -29.65196
v 21.78085 19.47566 -29.65196
v 16.45503 19.47566 -29.65196
v 21.78085 -3.01 -29.65196
v 21.78085 -2.01 -29.65196
v -49.05098 -3.01 -77.21442
v 12.13232 -3.01 -77.21442
v -59.0396 -3.01 -77.21442
v -54.15434 -3.01 -77.21442
v -54.15434 19.47566 -77.21442
v -59.0396 19.47566 -77.21442
v -59.0396 -2.01 -77.21442
v 16.45503 12.85933 -29.65196
v 2.558361 12.85933 -29.65196
v 16.45503 12.85933 -77.21442
v 2.558361 12.85933 -77.21442
v -49.05098 -2.01 -29.65196
v -54.15434 -2.01 -29.65196
v -49.05098 -2.01 -77.21442
v -54.15434 -2.01 -77.21442
v 12.13232 -2.01 -29.65196
v 12.13232 -2.01 -77.21442
v 16.45503 -3.01 -77.21442
v 21.78085 19.47566 -77.21442
v 16.45503 19.47566 -77.21442
v 21.78085 -3.01 -77.21442
v 21.78085 -2.01 -77.21442
v -49.05098 -3.01 -88.22298
v 12.13232 -3.01 -88.22298
v -59.0396 -3.01 -88.22298
v -54.15434 -3.01 -88.22298
v -54.15434 19.47566 -88.22298
v -59.0396 19.47566 -88.22298
v -59.0396 -2.01 -88.22298
v 16.45503 12.85933 -88.22298
v 2.558361 12.85933 -88.22298
v -49.05098 14.6269 -77.21442
v -54.15434 14.6269 -77.21442
v -49.05098 14.6269 -88.22298
v -54.15434 14.6269 -88.22298
v 12.13232 24.22486 -77.21442
v -49.05098 24.22486 -77.21442
v 12.13232 24.22486 -88.22298
v -49.05098 24.22486 -88.22298
v 16.45503 -3.01 -88.22298
v 21.78085 19.47566 -88.22298
v 16.45503 19.47566 -88.22298
v 21.78085 -3.01 -88.22298
v 21.78085 -2.01 -88.22298
v -49.05098 -3.01 -132.2187
v 12.13232 -3.01 -132.2187
v -59.0396 -3.01 -132.2187
v -54.15434 -3.01 -132.2187
v -54.15434 19.47566 -132.2187
v -59.0396 19.47566 -132.2187
v -59.0396 -2.01 -132.2187
v 16.45503 12.85933 -132.2187
v 2.558361 12.85933 -132.2187
v -49.05098 14.6269 -132.2187
v -54.15434 14.6269 -132.2187
v 12.13232 -2.01 -88.22298
v -49.05098 -2.01 -88.22298
v 12.13232 -2.01 -132.2187
v -49.05098 -2.01 -132.2187
v 16.45503 -3.01 -132.2187
v 21.78085 19.47566 -132.2187
v 16.45503 19.47566 -132.2187
v 21.78085 -3.01 -132.2187
v 21.78085 -2.01 -132.2187
v -54.15434 19.47566 -140.1687
v -59.0396 19.47566 -140.1687
v 12.13232 19.47566 -132.2187
v 16.45503 19.47566 -140.1687
v 12.13232 19.47566 -140.1687
v -49.05098 19.47566 -132.2187
v -49.05098 19.47566 -140.1687
v 21.78085 19.47566 -140.1687
v 12.13232 -3.01 24.19793
v -49.05098 -3.01 24.19793
v 16.45503 -3.01 24.19793
v -49.05098 19.47566 16.65319
v 12.13232 19.47566 16.65319
v -54.15434 -3.01 24.19793
v -59.0396 -3.01 24.19793
v -59.0396 -2.01 24.19793
v 21.78085 -3.01 24.19793
v 21.78085 -2.01 24.19793
v -54.15434 -2.01 16.65319
v -54.15434 -2.01 -18.98429
v -54.15434 -2.01 -88.22298
v -54.15434 -2.01 -132.2187
v 16.45503 -2.01 -132.2187
v 16.45503 -2.01 -88.22298
v 16.45503 -2.01 -77.21442
v 16.45503 -2.01 -29.65196
v -49.05098 12.64531 16.65319
v -54.15434 12.64531 16.65319
v -49.05098 12.64531 -29.65196
v -49.05098 12.64531 -18.98429
v -54.15434 12.64531 -18.98429
v -54.15434 12.64531 -29.65196
v -49.05098 12.64531 -132.2187
v -49.05098 12.64531 -88.22298
v -54.15434 12.64531 -88.22298
v -54.15434 12.64531 -132.2187
v -49.05098 12.64531 -77.21442
v -54.15434 12.64531 -77.21442
v -54.15434 12.64531 -77.21849
v -49.05098 12.64531 -77.21849
v -54.15434 14.6269 -77.21849
v -49.05098 14.6269 -77.21849
v 16.45503 10.81721 -29.65196
v 2.558361 10.81721 -29.65196
v 16.45503 10.81721 -132.2187
v 16.45503 10.81721 -88.22298
v 2.558361 10.81721 -88.22298
v 2.558361 10.81721 -132.2187
v 16.45503 10.81721 -77.21442
v 2.558361 10.81721 -77.21442

vt 12.13232 21.48557
vt -49.05098 21.48557
vt 12.13232 22.48566
vt -49.05098 22.48566
vt 16.6532 0
vt -18.98429 0
vt 16.6532 1
vt -18.98429 1
vt 49.05098 0
vt -12.13232 0
vt 49.05098 1
vt -12.13232 1
vt 18.98429 0
vt -16.65319 0
vt 18.98429 1
vt -16.65319 1
vt -12.13232 16.65319
vt 49.05098 16.65319
vt -12.13232 -18.98429
vt 49.05098 -18.98429
vt 12.13232 -18.98429
vt -49.05098 -18.98429
vt 12.13232 16.65319
vt -49.05098 16.65319
vt 16.45503 -18.98429
vt 16.45503 16.65319
vt -16.45503 1
vt -16.45503 0
vt 16.45503 21.48557
vt 16.45503 22.48566
vt -16.45503 16.65319
vt -16.45503 -18.98429
vt 21.78085 -18.98429
vt 21.78085 16.65319
vt -21.78085 1
vt -21.78085 0
vt 21.78085 21.48557
vt 21.78085 22.48566
vt -21.78085 16.65319
vt -21.78085 -18.98429
vt -54.15434 16.65319
vt -54.15434 -18.98429
vt -54.15434 22.48566
vt -54.15434 21.48557
vt 54.15434 0
vt 54.15434 1
vt 54.15434 -18.98429
vt 54.15434 16.65319
vt -59.0396 16.65319
vt -59.0396 -18.98429
vt -59.0396 22.48566
vt -59.0396 21.48557
vt 59.0396 0
vt 59.0396 1
vt 59.0396 -18.98429
vt 59.0396 16.65319
vt -49.05098 -29.65196
vt 12.13232 -29.65196
vt -59.0396 -29.65196
vt -54.15434 -29.65196
vt 54.15434 -29.65196
vt 59.0396 -29.65196
vt -29.65196 1
vt -29.65196 0
vt -16.45503 -29.65196
vt -12.13232 -29.65196
vt 49.05098 -21.40876
vt 54.15434 -21.40876
vt 49.05098 -32.23677
vt 54.15434 -32.23677
vt 49.05098 -29.65196
vt 16.45503 -29.65196
vt -21.78085 -29.65196
vt 21.78085 -29.65196
vt 29.65196 0
vt 29.65196 1
vt -49.05098 -77.21442
vt 12.13232 -77.21442
vt -59.0396 -77.21442
vt -54.15434 -77.21442
vt 54.15434 -77.21442
vt 59.0396 -77.21442
vt -77.21442 1
vt -77.21442 0
vt -2.558361 -29.65196
vt -16.45503 -77.21442
vt -2.558361 -77.21442
vt 49.05098 -77.21442
vt -12.13232 -77.21442
vt 16.45503 -77.21442
vt -21.78085 -77.21442
vt 21.78085 -77.21442
vt 77.21442 0
vt 77.21442 1
vt -49.05098 -88.22298
vt 12.13232 -88.22298
vt -59.0396 -88.22298
vt -54.15434 -88.22298
vt 54.15434 -88.22298
vt 59.0396 -88.22298
vt -88.22298 1
vt -88.22298 0
vt -16.45503 -88.22298
vt -2.558361 -88.22298
vt 49.05098 -88.22298
vt -12.13232 -88.22298
vt 16.45503 -88.22298
vt -21.78085 -88.22298
vt 21.78085 -88.22298
vt 88.22298 0
vt 88.22298 1
vt -49.05098 -132.2187
vt 12.13232 -132.2187
vt -59.0396 -132.2187
vt -54.15434 -132.2187
vt 54.15434 -132.2187
vt 59.0396 -132.2187
vt -132.2187 1
vt -132.2187 0
vt -16.45503 -132.2187
vt -2.558361 -132.2187
vt 49.05098 -132.2187
vt -12.13232 -132.2187
vt 16.45503 -132.2187
vt -21.78085 -132.2187
vt 21.78085 -132.2187
vt 132.2187 0
vt 132.2187 1
vt -49.05098 -140.1687
vt 12.13232 -140.1687
vt -59.0396 -140.1687
vt -54.15434 -140.1687
vt 54.15434 -140.1687
vt 59.0396 -140.1687
vt -140.1687 1
vt -140.1687 0
vt -16.45503 -140.1687
vt -12.13232 -140.1687
vt 49.05098 -140.1687
vt 16.45503 -140.1687
vt -21.78085 -140.1687
vt 21.78085 -140.1687
vt 140.1687 0
vt 140.1687 1
vt 12.13232 24.19793
vt -49.05098 24.19793
vt 16.45503 24.19793
vt 54.15434 24.19802
vt 49.05098 24.19802
vt -12.13232 24.19802
vt -54.15434 24.19793
vt 59.0396 24.19802
vt -59.0396 24.19793
vt 24.1979 0
vt 24.1979 1
vt -16.45503 24.19802
vt 21.78085 24.19793
vt -21.78085 24.19802
vt -24.19793 1
vt -24.19793 0
vt 12.13232 0.0001074067
vt -49.05098 0.0001074067
vt 16.45503 0.0001074067
vt 54.15434 0.9999985
vt 49.05098 0.9999985
vt 54.15434 22.48566
vt 49.05098 22.48566
vt -54.15434 0.0001074067
vt 18.98429 22.48566
vt -16.65319 22.48566
vt -59.0396 0.0001074067
vt 24.19802 21.48557
vt 24.19802 22.48566
vt 16.6532 22.48567
vt -18.98429 22.48567
vt 24.19799 22.48566
vt 29.65196 22.48566
vt -29.65196 22.48566
vt 77.21442 22.48566
vt -77.21442 22.48566
vt 88.22298 22.48566
vt -88.22298 22.48566
vt 132.2187 22.48566
vt -132.2187 22.48566
vt -140.1687 22.48566
vt 59.0396 22.48566
vt -49.05098 1
vt -54.15434 1
vt -12.13232 22.48566
vt 12.13232 1
vt -16.45503 22.48566
vt 16.45503 1
vt -21.78085 22.48566
vt 140.1687 22.48566
vt -24.19802 22.48566
vt -24.19802 21.48557
vt -12.13232 0.9999985
vt -16.45503 0.9999985
vt 21.78085 0.0001074067
vt 12.13232 27.23486
vt -49.05098 27.23486
vt 88.22298 27.23486
vt 77.21442 27.23486
vt -77.21442 27.23486
vt -88.22298 27.23486
vt 49.05098 27.23486
vt -12.13232 27.23486
vt 29.65196 27.23486
vt 18.98429 27.23486
vt -18.98429 27.23486
vt -29.65196 27.23486
vt 16.45503 23.94396
vt 12.13232 23.94396
vt 29.65196 23.94396
vt 18.98429 23.94396
vt -18.98429 23.94396
vt -29.65196 23.94396
vt -12.13232 23.94396
vt -16.45503 23.94396
vt -49.05098 0.9999979
vt -54.15434 0.9999979
vt -49.05098 15.65531
vt -54.15434 15.65531
vt 29.65196 15.65531
vt 18.98429 15.65531
vt -18.98429 15.65531
vt -29.65196 15.65531
vt 54.15434 15.65531
vt 49.05098 15.65531
vt -16.65319 15.65531
vt 16.65319 15.65531
vt 132.2187 15.65531
vt 88.22298 15.65531
vt -88.22298 15.65531
vt -132.2187 15.65531
vt 77.21442 15.65531
vt -77.21442 15.65531
vt -49.05098 15.78042
vt -54.15434 15.78042
vt 29.65196 17.6369
vt 18.98429 15.78042
vt -18.98429 15.78042
vt -29.65196 17.6369
vt 54.15434 17.6369
vt 49.05098 17.6369
vt -16.65319 15.78042
vt 16.65319 15.78042
vt 132.2187 17.6369
vt 88.22298 17.6369
vt -88.22298 17.6369
vt -132.2187 17.6369
vt -49.05098 17.6369
vt -54.15434 17.6369
vt 77.21442 17.6369
vt -77.21442 17.6369
vt -54.15434 -77.21849
vt -49.05098 -77.21849
vt -77.21849 17.6369
vt -77.21849 15.65531
vt 77.21849 15.65531
vt 77.21849 17.6369
vt 49.05098 -77.21849
vt 54.15434 -77.21849
vt 16.45503 13.82721
vt 2.558361 13.82721
vt 132.2187 13.82721
vt 88.22298 13.82721
vt -88.22298 -6.455453
vt -132.2187 -6.455453
vt -88.22298 9.55074
vt -132.2187 9.55074
vt -2.558361 13.82721
vt -16.45503 13.82721
vt 77.21442 13.82721
vt -77.21442 -6.455453
vt -77.21442 9.55074
vt 29.65196 13.82721
vt -29.65196 -6.455452
vt -29.65196 9.55074
vt 16.45503 15.86933
vt 2.558361 15.86933
vt 132.2187 15.86933
vt 88.22298 15.86933
vt -88.22298 13.82721
vt -132.2187 13.82721
vt -88.22298 15.86933
vt -132.2187 15.86933
vt -2.558361 15.86933
vt -16.45503 15.86933
vt 77.21442 15.86933
vt -77.21442 13.82721
vt -77.21442 15.86933
vt 29.65196 15.86933
vt -29.65196 13.82721
vt -29.65196 15.86933

vn 0 0 1
vn -1 0 -1.070417E-07
vn 0 0 -1
vn 1 0 0
vn 0 1 0
vn 0 -1 0
vn 0 0.9851925 0.1714516
vn -0.8013907 -0.5981412 0

g ProbuilderFactory1Map
usemtl ProBuilderDefault
f 3/3/1 4/4/1 2/2/1 1/1/1
f 7/7/2 8/8/2 6/6/2 5/5/2
f 11/11/3 12/12/3 10/10/3 9/9/3
f 15/15/4 16/16/4 14/14/4 13/13/4
f 19/19/5 20/20/5 18/18/5 17/17/5
f 23/23/6 24/24/6 22/22/6 21/21/6
f 25/25/6 26/26/6 23/23/6 21/21/6
f 27/27/3 28/28/3 10/10/3 12/12/3
f 29/29/1 30/30/1 3/3/1 1/1/1
f 31/31/5 32/32/5 19/19/5 17/17/5
f 13/33/6 14/34/6 26/26/6 25/25/6
f 33/35/3 34/36/3 28/28/3 27/27/3
f 35/37/1 36/38/1 30/30/1 29/29/1
f 39/39/5 40/40/5 38/32/5 37/31/5
f 41/41/6 42/42/6 22/22/6 24/24/6
f 43/43/1 44/44/1 2/2/1 4/4/1
f 45/45/3 46/46/3 11/11/3 9/9/3
f 49/47/5 50/48/5 48/18/5 47/20/5
f 5/49/6 6/50/6 42/42/6 41/41/6
f 51/51/1 52/52/1 44/44/1 43/43/1
f 53/53/3 54/54/3 46/46/3 45/45/3
f 57/55/5 58/56/5 56/48/5 55/47/5
f 59/57/6 60/58/6 21/21/6 22/22/6
f 61/59/6 62/60/6 42/42/6 6/50/6
f 63/61/5 64/62/5 57/55/5 55/47/5
f 65/63/2 61/64/2 6/6/2 8/8/2
f 68/65/5 69/66/5 67/19/5 66/32/5
f 62/60/6 59/57/6 22/22/6 42/42/6
f 70/69/7 71/70/7 49/68/7 47/67/7
f 74/66/5 75/71/5 73/20/5 72/19/5
f 60/58/6 76/72/6 25/25/6 21/21/6
f 77/73/5 78/65/5 38/32/5 40/40/5
f 76/72/6 79/74/6 13/33/6 25/25/6
f 79/75/4 80/76/4 15/15/4 13/13/4
f 81/77/6 82/78/6 60/58/6 59/57/6
f 83/79/6 84/80/6 62/60/6 61/59/6
f 85/81/5 86/82/5 64/62/5 63/61/5
f 87/83/2 83/84/2 61/64/2 65/63/2
f 90/86/5 91/87/5 89/85/5 88/65/5
f 84/80/6 81/77/6 59/57/6 62/60/6
f 94/88/5 95/81/5 93/61/5 92/71/5
f 97/89/5 94/88/5 92/71/5 96/66/5
f 82/78/6 98/90/6 76/72/6 60/58/6
f 99/91/5 100/86/5 78/65/5 77/73/5
f 98/90/6 101/92/6 79/74/6 76/72/6
f 101/93/4 102/94/4 80/76/4 79/75/4
f 103/95/6 104/96/6 82/78/6 81/77/6
f 105/97/6 106/98/6 84/80/6 83/79/6
f 107/99/5 108/100/5 86/82/5 85/81/5
f 109/101/2 105/102/2 83/84/2 87/83/2
f 110/103/5 111/104/5 91/87/5 90/86/5
f 106/98/6 103/95/6 81/77/6 84/80/6
f 114/105/5 115/99/5 113/81/5 112/88/5
f 118/106/5 119/105/5 117/88/5 116/89/5
f 104/96/6 120/107/6 98/90/6 82/78/6
f 121/108/5 122/103/5 100/86/5 99/91/5
f 120/107/6 123/109/6 101/92/6 98/90/6
f 123/110/4 124/111/4 102/94/4 101/93/4
f 125/112/6 126/113/6 104/96/6 103/95/6
f 127/114/6 128/115/6 106/98/6 105/97/6
f 129/116/5 130/117/5 108/100/5 107/99/5
f 131/118/2 127/119/2 105/102/2 109/101/2
f 132/120/5 133/121/5 111/104/5 110/103/5
f 128/115/6 125/112/6 103/95/6 106/98/6
f 134/122/5 135/116/5 115/99/5 114/105/5
f 138/123/5 139/122/5 137/105/5 136/106/5
f 126/113/6 140/124/6 120/107/6 104/96/6
f 141/125/5 142/120/5 122/103/5 121/108/5
f 140/124/6 143/126/6 123/109/6 120/107/6
f 143/127/4 144/128/4 124/111/4 123/110/4
f 9/129/6 10/130/6 126/113/6 125/112/6
f 53/131/6 45/132/6 128/115/6 127/114/6
f 145/133/5 146/134/5 130/117/5 129/116/5
f 54/135/2 53/136/2 127/119/2 131/118/2
f 148/137/5 149/138/5 147/123/5 142/120/5
f 45/132/6 9/129/6 125/112/6 128/115/6
f 151/139/5 145/133/5 129/116/5 150/122/5
f 149/138/5 151/139/5 150/122/5 147/123/5
f 10/130/6 28/140/6 140/124/6 126/113/6
f 152/141/5 148/137/5 142/120/5 141/125/5
f 28/140/6 34/142/6 143/126/6 140/124/6
f 34/143/4 33/144/4 144/128/4 143/127/4
f 153/145/6 154/146/6 24/24/6 23/23/6
f 155/147/6 153/145/6 23/23/6 26/26/6
f 43/148/5 4/149/5 156/18/5 56/48/5
f 4/149/5 3/150/5 157/17/5 156/18/5
f 154/146/6 158/151/6 41/41/6 24/24/6
f 51/152/5 43/148/5 56/48/5 58/56/5
f 158/151/6 159/153/6 5/49/6 41/41/6
f 159/154/2 160/155/2 7/7/2 5/5/2
f 3/150/5 30/156/5 37/31/5 157/17/5
f 161/157/6 155/147/6 26/26/6 14/34/6
f 30/156/5 36/158/5 39/39/5 37/31/5
f 162/159/4 161/160/4 14/14/4 16/16/4
f 1/1/1 2/2/1 154/162/1 153/161/1
f 29/29/1 1/1/1 153/161/1 155/163/1
f 56/166/3 156/167/3 18/165/3 163/164/3
f 2/2/1 44/44/1 158/168/1 154/162/1
f 55/169/4 56/170/4 163/16/4 164/15/4
f 44/44/1 52/52/1 159/171/1 158/168/1
f 52/172/2 51/173/2 160/155/2 159/154/2
f 58/174/2 57/175/2 8/8/2 7/7/2
f 51/176/2 58/174/2 7/7/2 160/155/2
f 63/177/4 55/169/4 164/15/4 93/76/4
f 57/175/2 64/178/2 65/63/2 8/8/2
f 85/179/4 63/177/4 93/76/4 95/94/4
f 64/178/2 86/180/2 87/83/2 65/63/2
f 107/181/4 85/179/4 95/94/4 165/111/4
f 86/180/2 108/182/2 109/101/2 87/83/2
f 129/183/4 107/181/4 165/111/4 166/128/4
f 108/182/2 130/184/2 131/118/2 109/101/2
f 145/166/3 151/167/3 11/11/3 46/46/3
f 130/184/2 146/185/2 54/135/2 131/118/2
f 146/186/3 145/166/3 46/46/3 54/54/3
f 150/4/1 129/43/1 166/188/1 139/187/1
f 151/167/3 149/189/3 12/12/3 11/11/3
f 147/3/1 150/4/1 139/187/1 138/190/1
f 149/189/3 148/191/3 27/27/3 12/12/3
f 142/30/1 147/3/1 138/190/1 167/192/1
f 148/191/3 152/193/3 33/35/3 27/27/3
f 40/169/4 39/170/4 16/16/4 15/15/4
f 152/194/4 141/183/4 144/128/4 33/144/4
f 37/174/2 38/175/2 32/8/2 31/7/2
f 141/183/4 121/181/4 124/111/4 144/128/4
f 122/182/2 142/184/2 167/118/2 168/101/2
f 121/181/4 99/179/4 102/94/4 124/111/4
f 100/180/2 122/182/2 168/101/2 169/83/2
f 99/179/4 77/177/4 80/76/4 102/94/4
f 78/178/2 100/180/2 169/83/2 170/63/2
f 77/177/4 40/169/4 15/15/4 80/76/4
f 38/175/2 78/178/2 170/63/2 32/8/2
f 39/170/4 36/195/4 162/159/4 16/16/4
f 36/195/4 35/196/4 161/160/4 162/159/4
f 157/189/3 37/191/3 31/198/3 17/197/3
f 35/37/1 29/29/1 155/163/1 161/199/1
f 156/167/3 157/189/3 17/197/3 18/165/3
f 116/200/1 117/201/1 94/187/1 97/190/1
f 118/202/4 116/203/4 97/94/4 136/111/4
f 117/204/2 119/205/2 137/101/2 94/83/2
f 119/206/3 118/207/3 136/12/3 137/11/3
f 72/200/1 73/201/1 20/187/1 19/190/1
f 74/208/4 72/209/4 19/15/4 96/76/4
f 73/210/2 75/211/2 92/63/2 20/8/2
f 75/206/3 74/207/3 96/12/3 92/11/3
f 66/212/1 67/213/1 19/190/1 32/192/1
f 68/214/4 66/215/4 32/15/4 170/76/4
f 67/216/2 69/217/2 96/63/2 19/8/2
f 69/218/3 68/219/3 170/27/3 96/12/3
f 171/222/1 172/223/1 163/221/1 18/220/1
f 173/224/4 174/225/4 20/15/4 92/76/4
f 175/226/2 176/227/2 93/63/2 164/8/2
f 176/228/3 173/229/3 92/11/3 93/46/3
f 174/225/4 171/230/4 18/16/4 20/15/4
f 172/231/2 175/226/2 164/8/2 163/7/2
f 177/232/4 178/233/4 137/111/4 139/128/4
f 179/234/2 180/235/2 166/118/2 165/101/2
f 180/228/3 177/229/3 139/11/3 166/46/3
f 181/222/1 182/223/1 95/188/1 94/187/1
f 178/233/4 181/236/4 94/94/4 137/111/4
f 182/237/2 179/234/2 165/101/2 95/83/2
f 48/238/1 50/239/1 172/223/1 171/222/1
f 70/240/4 47/241/4 174/225/4 173/224/4
f 49/242/2 71/243/2 176/227/2 175/226/2
f 185/244/3 186/245/3 184/229/3 183/228/3
f 47/241/4 48/246/4 171/230/4 174/225/4
f 50/247/2 49/242/2 175/226/2 172/231/2
f 134/248/4 114/249/4 178/233/4 177/232/4
f 115/250/2 135/251/2 180/235/2 179/234/2
f 135/244/3 134/245/3 177/229/3 180/228/3
f 112/252/1 113/253/1 182/223/1 181/222/1
f 114/249/4 112/254/4 181/236/4 178/233/4
f 113/255/2 115/250/2 179/234/2 182/237/2
f 183/256/6 184/257/6 173/57/6 176/60/6
f 185/258/2 183/259/2 176/227/2 71/243/2
f 184/260/4 186/261/4 70/240/4 173/224/4
f 186/262/5 185/263/5 71/61/5 70/71/5
f 187/264/1 188/265/1 96/190/1 170/192/1
f 189/266/4 190/267/4 168/111/4 167/128/4
f 191/270/8 192/271/8 138/269/8 136/268/8
f 192/272/3 189/273/3 167/27/3 138/12/3
f 190/267/4 193/274/4 169/94/4 168/111/4
f 194/276/8 191/270/8 136/268/8 97/275/8
f 193/274/4 187/277/4 170/76/4 169/94/4
f 188/279/8 194/276/8 97/275/8 96/278/8
f 88/280/1 89/281/1 188/265/1 187/264/1
f 132/282/4 110/283/4 190/267/4 189/266/4
f 111/286/2 133/287/2 192/285/2 191/284/2
f 133/288/3 132/289/3 189/273/3 192/272/3
f 110/283/4 90/290/4 193/274/4 190/267/4
f 91/292/2 111/286/2 191/284/2 194/291/2
f 90/290/4 88/293/4 187/277/4 193/274/4
f 89/295/2 91/292/2 194/291/2 188/294/2

